<svg width="496" height="532" viewBox="0 0 496 532" fill="none" xmlns="http://www.w3.org/2000/svg">
<path fill-rule="evenodd" clip-rule="evenodd" d="M223.188 1.07533C182.627 6.21833 145.204 20.0643 111.816 42.2813C101.757 48.9743 99.7901 51.8753 103.353 54.7613C106.268 57.1213 107.834 56.6643 115.767 51.1343C124.039 45.3693 130.889 41.3943 143.428 35.0833C206.507 3.33633 279.336 0.510334 344.928 27.2643C391.296 46.1773 432.734 81.0423 459.076 123.306C462.91 129.456 464.064 130.62 466.332 130.62C469.378 130.62 471.428 129.002 471.428 126.598C471.428 125.706 467.913 119.608 463.617 113.048C424.686 53.6003 361.427 13.2993 289.428 2.07533C275.046 -0.166668 237.461 -0.733667 223.188 1.07533ZM83.2721 71.9523C72.7441 75.8903 60.2061 87.4763 55.1041 97.9823C52.0361 104.298 50.2591 112.736 51.5581 114.816C52.5021 116.329 53.4321 115.172 60.6431 103.519C65.7131 95.3273 75.8051 85.1963 81.1001 82.9843C85.5591 81.1203 96.4831 81.2583 101.436 83.2403C106.478 85.2573 109.745 90.4983 111.982 100.158C113.325 105.956 113.734 118.068 114.43 172.62C115.566 261.746 116.975 283.016 122.804 299.074C126.861 310.252 131.792 315.62 138.004 315.62C142.24 315.62 148.478 308.453 152.362 299.124C154.293 294.486 157.753 281.611 160.933 267.233C170.892 222.204 175.436 204.754 180.603 191.705C183.6 184.134 189.903 174.064 192.21 173.16C194.164 172.395 195.428 176.947 195.428 184.748C195.428 204.015 207.145 323.177 212.475 358.12C215.297 376.617 219.598 384.486 224.479 380.078C231.199 374.008 242.949 339.74 252.924 297.12C269.388 226.77 282.9 178.548 294.113 150.12C310.844 107.7 322.448 96.3863 349.428 96.1893C358.049 96.1263 359.529 96.4063 365.428 99.2063C369.003 100.904 374.595 104.729 377.855 107.706C384.583 113.852 392.9 124.602 391.716 125.624C391.283 125.998 387.778 127.123 383.928 128.124C374.604 130.548 364.167 134.836 359.186 138.288C351.392 143.689 345.6 155.66 343.3 171.121C341.185 185.346 345.452 197.558 356.428 208.686C364.801 217.176 370.047 220.642 397.928 236.104C427.072 252.267 438.256 259.672 446.504 268.267C461.376 283.766 467.793 301.065 469.078 329.12C470.087 351.143 465.295 370.754 455.706 383.846C444.907 398.59 429.103 411.588 415.357 417.031C400.705 422.834 379.927 425.358 360.678 423.675C335.367 421.461 316.517 412.861 299.352 395.696C282.266 378.61 272.406 356.829 272.445 336.258C272.489 313.377 279.322 300.594 298.458 287.6C301.603 285.464 304.436 283.042 304.752 282.219C306.178 278.503 296.227 279.661 287.132 284.27C280.49 287.636 270.465 297.753 267.545 304.037C262.878 314.082 261.108 323.195 261.023 337.62C260.943 351.022 260.974 351.212 265.281 363.805C271.149 380.961 276.598 390.001 287.824 401.209C309.745 423.093 334.749 433.948 366.428 435.334C400.578 436.828 433.664 425.289 454.495 404.62C467.844 391.374 475.086 377.476 479.528 356.577C482.733 341.499 482.755 312.831 479.571 301.12C472.132 273.759 452.357 250.261 425.223 236.539C420.985 234.396 411.76 230.355 404.723 227.559C375.283 215.864 361.927 205.505 356.161 189.895C353.166 181.787 353.146 167.039 356.121 160.62C360.737 150.659 370.138 144.029 384.388 140.683C395.415 138.094 398.631 138.082 400.928 140.62C403.343 143.289 405.278 143.144 406.394 140.209C407.257 137.94 407.68 137.826 413.619 138.252C443.578 140.402 458.674 145.608 470.95 158.02C480.931 168.112 486.356 180.891 486.411 194.436C486.434 200.163 488.009 203.213 490.064 201.507C494.831 197.551 496.556 186.061 494.009 175.223C489.726 156.996 474.716 140.659 454.391 132.104C443.434 127.493 433.86 125.53 419.304 124.912L405.68 124.333L400.804 116.848C394.677 107.443 382.345 95.8753 373.478 91.2153C363.569 86.0083 355.726 84.2513 345.371 84.9163C319.236 86.5943 306.177 95.9593 293.977 121.768C282.845 145.321 259.057 224.786 234.487 320.499C227.6 347.329 225.889 352.213 224.352 349.433C222.616 346.292 220.514 325.958 214.912 258.12C207.66 170.308 205.493 155.594 198.831 148.933C190.739 140.841 179.152 154.245 169.043 183.391C163.684 198.842 159.103 217.147 152.967 247.62C146.811 278.197 143.39 290.289 139.802 294.161C134.543 299.836 132.322 295.427 129.957 274.62C127.519 253.168 126.355 225.156 125.408 165.12C124.506 107.915 123.733 95.2243 120.766 88.9383C118.628 84.4073 109.258 75.8753 103.74 73.4343C97.8461 70.8273 88.1571 70.1253 83.2721 71.9523ZM34.6351 124.37C24.1321 139.337 10.4431 174.513 5.04507 200.404C1.02507 219.686 0.0140685 230.048 6.8484e-05 252.12C-0.0169315 280.157 3.13007 302.314 10.5231 326.197C13.9091 337.137 15.9931 340.21 19.3121 339.157C23.3821 337.865 23.4551 335.684 19.8291 323.723C11.7931 297.216 8.90607 274.827 9.71107 245.251C10.7471 207.149 17.8851 178.546 34.9691 144.03C39.6221 134.631 43.4281 126.284 43.4281 125.48C43.4281 121.081 37.4701 120.329 34.6351 124.37ZM34.4281 340.055C34.4281 340.844 34.8671 342.644 35.4031 344.055C36.3581 346.566 36.5841 346.62 46.1031 346.62C52.0991 346.62 55.4641 346.976 54.8781 347.548C54.3551 348.058 44.4781 353.93 32.9281 360.597C21.3781 367.263 11.1181 373.518 10.1281 374.496C8.39507 376.209 8.40007 376.364 10.2611 378.662C12.0281 380.845 12.4371 380.937 15.0611 379.742C22.0901 376.54 65.2431 351.482 66.9221 349.627C68.7481 347.609 68.7421 347.481 66.6671 343.842C64.1361 339.404 61.6481 338.808 45.1781 338.694C36.4711 338.634 34.4281 338.893 34.4281 340.055ZM60.3351 368.948C48.7321 375.076 46.6321 392.12 56.6951 398.492L59.7681 400.438L51.9701 405.529C44.2361 410.578 40.9631 411.512 37.4991 409.658C34.7311 408.177 33.0851 403.167 33.8321 398.497C34.5501 394.004 33.3521 391.62 30.3761 391.62C28.9911 391.62 28.3031 392.906 27.4241 397.14C26.0451 403.782 26.7981 407.991 30.1691 412.476C36.1671 420.456 43.1291 419.993 56.6831 410.711C82.2381 393.212 88.3701 387.082 87.0291 380.373C85.5901 373.181 76.8801 366.62 68.7701 366.62C66.4831 366.62 62.8381 367.626 60.3351 368.948ZM74.9661 374.072C82.2231 377.104 81.2681 383.886 72.5751 391.047C66.8831 395.737 63.9931 396.428 60.5911 393.91C52.4141 387.86 55.4661 376.85 66.2191 373.608C70.1751 372.416 71.1241 372.466 74.9661 374.072ZM78.4781 418.06C77.8211 418.851 77.4291 420.764 77.6061 422.31C78.0201 425.922 82.1351 426.707 84.8621 423.693C86.5781 421.796 86.5891 421.515 85.0371 419.146C83.1981 416.339 80.3041 415.86 78.4781 418.06ZM108.503 422.111C105.143 423.709 100.375 427.438 95.9741 431.91C81.1551 446.972 75.1561 463.17 81.0591 472.18C82.9801 475.112 88.3161 477.62 92.6331 477.62C106.407 477.62 129.428 450.674 129.428 434.55C129.428 422.224 120.025 416.635 108.503 422.111ZM118.809 426.575C122.814 428.098 124.154 434.105 121.974 440.77C117.574 454.223 101.09 470.62 91.9681 470.62C90.5711 470.62 88.4751 469.667 87.3111 468.503C85.5941 466.786 85.2881 465.551 85.6931 461.965C86.9211 451.07 100.419 432.89 110.928 427.977C116.825 425.22 115.749 425.412 118.809 426.575ZM404.428 442.781C378.073 464.174 344.902 480.432 309.833 489.146C303.835 490.637 298.343 492.327 297.627 492.903C296.911 493.479 296.461 495.338 296.627 497.035C296.886 499.694 297.368 500.163 300.109 500.428C304.423 500.846 325.198 495.382 340.286 489.861C364.217 481.105 393.462 464.562 410.954 449.888C418.002 443.975 419.698 440.856 417.382 438.065C415.213 435.451 412.03 436.61 404.428 442.781ZM143.775 444.677C136.386 448.335 132.218 457.355 133.864 466.128C134.759 470.901 141.122 477.284 145.872 478.176C147.828 478.542 149.428 479.013 149.428 479.221C149.428 479.429 147.438 482.704 145.006 486.499C140.428 493.641 137.254 496.62 134.221 496.62C131.444 496.62 126.584 491.505 125.195 487.12C124.148 483.815 123.425 483.063 121.031 482.789L118.134 482.459L118.762 487.043C120.161 497.249 126.593 503.62 135.498 503.62C139.324 503.62 140.296 503.096 144.362 498.844C148.619 494.391 164.471 468.162 167.102 461.219C169.931 453.752 167.746 448.353 160.373 444.592C155.393 442.051 149.014 442.084 143.775 444.677ZM159.355 451.255C162.063 454.696 161.979 455.961 158.568 463.12C154.749 471.136 152.502 473.056 147.827 472.297C143.168 471.541 140.631 469.221 139.837 464.989C138.907 460.028 140.108 456.705 144.375 452.437C147.679 449.134 148.805 448.62 152.738 448.62C156.457 448.62 157.66 449.099 159.355 451.255ZM214.381 460.565C207.785 462.568 198.723 470.341 199.779 473.092C200.919 476.062 203.188 475.731 209.458 471.679C217.088 466.747 221.281 466.347 224.355 470.255C227.203 473.875 227.04 479.255 223.945 483.81C221.336 487.649 211.519 495.999 200.216 503.994C191.842 509.917 188.428 513.892 188.428 517.718C188.428 521.564 189.143 521.822 210.338 525.609C228.876 528.922 229.378 528.877 229.413 523.909C229.431 521.307 227.151 520.551 211.928 518.11C196.316 515.607 196.489 516.067 207.965 507.598C226.943 493.593 233.396 485.539 233.418 475.83C233.443 465.027 224.171 457.593 214.381 460.565ZM247.783 466.372C247.042 466.855 246.512 472.071 246.283 481.12L245.928 495.12L255.581 495.241C266.703 495.381 272.131 497.566 276.139 503.518C283.551 514.521 271.195 529.327 257.646 525.679C255.474 525.094 251.975 523.247 249.869 521.573C242.856 516 238.913 519.986 245.649 525.839C250.603 530.143 254.681 531.621 261.579 531.61C269.153 531.599 276.65 528.522 280.63 523.792C285.867 517.568 286.2 505.708 281.361 497.751C278.556 493.137 270.216 489.526 260.554 488.74L252.928 488.12L252.636 480.398L252.345 472.675L266.636 472.398L280.928 472.12V469.12V466.12L264.928 465.872C256.128 465.735 248.413 465.96 247.783 466.372ZM177.628 479.82C175.005 482.443 176.893 487.62 180.473 487.62C182.282 487.62 185.428 484.6 185.428 482.863C185.428 479.589 179.983 477.465 177.628 479.82Z" fill="black"/>
</svg>
